<svg xmlns="http://www.w3.org/2000/svg" width="107" height="17" viewBox="0 0 107 17">
  <g fill="none">
    <path fill="#001420" d="M8.2 5.8C8 5.8 7.9 5.8 7.7 5.8 7 5.7 6.4 5.3 6 4.7 5.6 4.1 5.4 3.4 5.6 2.7 5.9 1.3 7.2.3 8.7.5 10.1.8 11.1 2.1 10.9 3.6L10.9 3.6C10.8 4.3 10.4 4.9 9.8 5.3 9.3 5.6 8.7 5.8 8.2 5.8zM8.2.9C7.2.9 6.2 1.7 6 2.7 5.9 3.3 6 3.9 6.4 4.3 6.7 4.8 7.2 5.1 7.8 5.2 8.4 5.3 9 5.2 9.4 4.8 9.9 4.5 10.2 4 10.3 3.4 10.5 2.2 9.7 1.1 8.5.8 8.4.9 8.3.9 8.2.9zM7.2 11.5C7 11.5 6.9 11.5 6.7 11.5 6 11.4 5.4 11 5 10.4 4.6 9.8 4.4 9.1 4.6 8.4 4.7 7.7 5.1 7.1 5.7 6.7 6.3 6.3 7 6.1 7.7 6.3 8.4 6.4 9 6.8 9.4 7.4 9.8 8 10 8.7 9.8 9.4L9.8 9.4C9.6 10.6 8.4 11.5 7.2 11.5zM7.2 6.6C6.8 6.6 6.3 6.7 5.9 7 5.4 7.3 5.1 7.8 5 8.4 4.9 9 5 9.6 5.4 10 5.7 10.5 6.2 10.8 6.8 10.9 8 11.1 9.1 10.3 9.4 9.1 9.5 8.5 9.4 7.9 9 7.4 8.7 6.9 8.2 6.6 7.6 6.5 7.4 6.6 7.3 6.6 7.2 6.6zM2.7 7.8C2.5 7.8 2.4 7.8 2.2 7.8 1.5 7.7.9 7.3.5 6.7.1 6.1-.1 5.4.1 4.7.2 4 .6 3.4 1.2 3 1.8 2.6 2.5 2.4 3.2 2.6 4.6 2.9 5.6 4.2 5.4 5.7L5.4 5.7C5.3 6.4 4.9 7 4.3 7.4 3.8 7.6 3.2 7.8 2.7 7.8zM2.7 2.9C2.3 2.9 1.8 3 1.4 3.3.9 3.6.6 4.1.5 4.7.4 5.3.5 5.9.9 6.3 1.2 6.8 1.7 7.1 2.3 7.2 2.9 7.3 3.5 7.2 3.9 6.8 4.4 6.5 4.7 6 4.8 5.4L4.8 5.4C5 4.2 4.2 3.1 3 2.8 2.9 2.9 2.8 2.9 2.7 2.9z"/>
    <path fill="#001420" d="M19.1 6.8C18.4 6.5 17.6 6.3 16.9 6.3 15.7 6.3 14.7 6.7 14 7.5 13.3 8.3 13 9.4 13 10.8 13 12 13.3 13.1 14 13.9 14.7 14.8 15.6 15.2 16.7 15.2 17.5 15.2 18.3 15 19 14.7L19.1 15.9C18.3 16.2 17.4 16.3 16.4 16.3 14.7 16.3 13.5 15.7 12.7 14.6 11.9 13.5 11.5 12.2 11.5 10.7 11.5 9 12 7.6 12.9 6.6 13.8 5.6 15.1 5.1 16.6 5 17.2 5 17.8 5 18.2 5.1 18.4 5.1 18.6 5.2 18.8 5.2 19 5.3 19.1 5.3 19.1 5.3L19.1 6.8zM20.8 10.8C20.8 9.3 21.2 8 22 6.9 22.8 5.8 24 5.2 25.7 5.2 27.4 5.2 28.6 5.8 29.4 6.9 30.2 8 30.5 9.3 30.5 10.8 30.5 12.3 30.1 13.6 29.4 14.7 28.6 15.8 27.4 16.4 25.7 16.4 24 16.4 22.8 15.8 22 14.7 21.2 13.6 20.8 12.3 20.8 10.8zM22.2 10.8C22.2 12.1 22.5 13.1 23.1 14 23.7 14.9 24.5 15.3 25.7 15.3 26.8 15.3 27.7 14.8 28.3 14 28.9 13.2 29.2 12.1 29.2 10.8 29.2 9.5 28.9 8.4 28.3 7.6 27.7 6.8 26.8 6.3 25.7 6.3 24.6 6.3 23.7 6.7 23.1 7.6 22.5 8.4 22.2 9.5 22.2 10.8zM33.3 7.9C33.3 7.1 33.3 6.2 33.2 5.4L34.4 5.4 34.4 7.3 34.4 7.3C34.5 7 34.7 6.8 34.8 6.5 35 6.2 35.2 6 35.4 5.8 35.7 5.6 36 5.4 36.4 5.3 36.8 5.2 37.2 5.1 37.8 5.1 39.1 5.1 40 5.5 40.5 6.3 41 7.1 41.3 8 41.3 9.2L41.3 16.1 40 16.1 40 9.6C40 8.6 39.8 7.8 39.5 7.2 39.1 6.6 38.5 6.3 37.6 6.3 36.5 6.3 35.7 6.7 35.2 7.6 35 8 34.8 8.4 34.7 8.8 34.6 9.3 34.5 9.7 34.5 10.2L34.5 16.1 33.2 16.1 33.2 7.9 33.3 7.9zM49.5 6.5L47.1 6.5 47.1 13.4C47.1 13.9 47.2 14.3 47.4 14.6 47.6 14.9 48 15.1 48.5 15.1 49 15.1 49.4 15 49.7 14.8L49.8 15.9C49.6 16 49.4 16 49.2 16.1 48.9 16.2 48.6 16.2 48.3 16.2 47.7 16.2 47.3 16.1 47 15.9 46.7 15.7 46.5 15.4 46.3 15.1 46.2 14.8 46.1 14.4 46 14 46 13.6 45.9 13.1 45.9 12.6L45.9 6.3 43.9 6.3 43.9 5.2 45.9 5.2 45.9 2.6 47.2 2.1 47.2 5.1 49.6 5.1 49.6 6.5 49.5 6.5zM57.9 14.4L57.9 14.4C57.6 15 57.1 15.5 56.5 15.8 55.9 16.1 55.2 16.3 54.6 16.3 53.9 16.3 53.3 16.2 52.9 15.9 52.4 15.7 52.1 15.4 51.8 15.1 51.4 14.4 51.2 13.8 51.2 13.2 51.2 12.3 51.4 11.6 51.8 11.1 52.2 10.6 52.7 10.2 53.4 10 54 9.8 54.7 9.6 55.5 9.5 56.2 9.5 56.9 9.4 57.6 9.4L57.8 9.4 57.8 9C57.8 7.1 57.1 6.2 55.4 6.2 54.3 6.2 53.3 6.5 52.3 7.1L52.3 5.8C53.3 5.3 54.3 5.1 55.3 5.1 57.8 5.1 59 6.4 58.9 9.1L58.9 13.8C58.9 14.6 58.9 15.4 59 16L57.7 16 57.7 14.4 57.9 14.4zM57.8 10.7L57.4 10.7C56.8 10.7 56.3 10.7 55.7 10.7 55.1 10.8 54.6 10.9 54.1 11.1 53.6 11.3 53.2 11.5 53 11.9 52.7 12.3 52.5 12.7 52.5 13.3 52.5 14 52.7 14.5 53.2 14.8 53.6 15.1 54.1 15.3 54.7 15.3 55.4 15.3 56 15.1 56.5 14.8 56.9 14.5 57.2 14.2 57.4 13.8 57.6 13.4 57.7 12.9 57.7 12.5 57.7 12.1 57.7 11.7 57.7 11.4L57.7 10.7 57.8 10.7zM69.2 6.8C68.5 6.5 67.7 6.3 67 6.3 65.8 6.3 64.8 6.7 64.1 7.5 63.4 8.3 63.1 9.4 63.1 10.8 63.1 12 63.4 13.1 64.1 13.9 64.8 14.8 65.7 15.2 66.8 15.2 67.6 15.2 68.4 15 69.1 14.7L69.2 15.9C68.4 16.2 67.5 16.3 66.5 16.3 64.8 16.3 63.6 15.7 62.8 14.6 62 13.5 61.6 12.2 61.6 10.7 61.6 9 62.1 7.6 63 6.6 63.9 5.6 65.2 5.1 66.7 5 67.3 5 67.9 5 68.3 5.1 68.5 5.1 68.7 5.2 68.9 5.2 69.1 5.3 69.2 5.3 69.2 5.3L69.2 6.8zM76.3 6.5L73.9 6.5 73.9 13.4C73.9 13.9 74 14.3 74.2 14.6 74.4 14.9 74.8 15.1 75.3 15.1 75.8 15.1 76.2 15 76.5 14.8L76.6 15.9C76.4 16 76.2 16 76 16.1 75.7 16.2 75.4 16.2 75.1 16.2 74.5 16.2 74.1 16.1 73.8 15.9 73.5 15.7 73.3 15.4 73.1 15.1 73 14.8 72.9 14.4 72.8 14 72.8 13.6 72.7 13.1 72.7 12.6L72.7 6.3 70.7 6.3 70.7 5.2 72.7 5.2 72.7 2.6 74 2.1 74 5.1 76.4 5.1 76.4 6.5 76.3 6.5z"/>
    <polygon fill="#001420" points="78.4 .4 82 .4 82 16.2 78.4 16.2"/>
    <path fill="#001420" d="M93.9 13.7C93.9 14.6 93.9 15.4 94 16.1L90.8 16.1C90.7 15.6 90.7 15.1 90.7 14.6 89.7 15.8 88.5 16.4 87.3 16.4 86.4 16.4 85.6 16.1 85 15.4 84.4 14.8 84.1 13.9 84.1 12.9 84.1 10.4 86 9.2 89.7 9.2L90.7 9.2 90.7 8.9C90.7 8.5 90.6 8.2 90.3 7.9 90.1 7.7 89.9 7.6 89.7 7.5 89.4 7.4 89.1 7.4 88.7 7.4 88.1 7.4 87.5 7.5 87 7.7 86.4 7.9 86 8.1 85.5 8.4L85.4 5.7C85.9 5.5 86.4 5.3 87.1 5.2 87.8 5.1 88.6 5 89.5 5 90.5 5 91.2 5.1 91.8 5.3 92.4 5.5 92.9 5.8 93.2 6.2 93.5 6.6 93.8 7 93.9 7.5 94 8 94.1 8.5 94.1 9.1L94.1 13.7 93.9 13.7zM90.6 10.8L90.1 10.8C89.2 10.8 88.5 10.9 88 11.2 87.5 11.5 87.2 12 87.2 12.6 87.2 13.5 87.7 14 88.5 13.9 89 13.9 89.3 13.8 89.6 13.6 89.9 13.4 90 13.2 90.2 12.9 90.4 12.3 90.5 11.7 90.5 11.1L90.5 10.8 90.6 10.8zM96.1.4L99.7.4 99.7 4.8C99.7 5.6 99.7 6.3 99.6 6.8L99.6 6.8C100 6.2 100.5 5.7 100.9 5.4 101.4 5.1 102 5 102.7 5 104 5 105 5.6 105.7 6.8 106.3 7.9 106.6 9.1 106.6 10.5 106.6 12.2 106.3 13.6 105.7 14.7 105 15.8 104 16.4 102.5 16.4 101.9 16.4 101.4 16.3 100.9 16 100.4 15.7 100 15.2 99.6 14.5L99.6 14.5C99.6 15.1 99.5 15.7 99.5 16.3L96 16.3C96.1 15.7 96.1 15 96.1 14.4L96.1.4zM102.8 10.5C102.8 9.6 102.7 8.8 102.5 8.3 102.3 7.8 101.8 7.5 101.3 7.5 100.8 7.5 100.4 7.8 100.2 8.3 99.9 8.9 99.8 9.6 99.8 10.5 99.8 11.4 99.9 12.2 100.2 12.7 100.5 13.3 100.8 13.6 101.3 13.6 101.9 13.6 102.3 13.3 102.5 12.7 102.7 12.2 102.8 11.5 102.8 10.5z"/>
  </g>
</svg>
